<?xml version="1.0" standalone="no"?>
<!DOCTYPE svg PUBLIC "-//W3C//DTD SVG 20010904//EN"
 "http://www.w3.org/TR/2001/REC-SVG-20010904/DTD/svg10.dtd">
<svg version="1.0" xmlns="http://www.w3.org/2000/svg"
 width="796.000000pt" height="284.000000pt" viewBox="0 0 796.000000 284.000000"
 preserveAspectRatio="xMidYMid meet">

<g transform="translate(0.000000,284.000000) scale(0.100000,-0.100000)"
fill="#000000" stroke="none">
<path d="M180 1490 l0 -1170 1275 0 1275 0 0 1170 0 1170 -1275 0 -1275 0 0
-1170z m1923 900 c34 -38 34 -49 -3 -95 -17 -21 -35 -58 -41 -81 -15 -57 -43
-81 -114 -97 l-60 -13 -32 -90 c-17 -49 -32 -92 -32 -95 -1 -3 27 -2 62 3 105
14 160 -8 177 -74 21 -77 -34 -195 -121 -257 -53 -39 -132 -65 -176 -58 -32 6
-35 3 -49 -29 -13 -31 -62 -138 -72 -156 -2 -3 31 -4 72 -1 73 6 75 5 105 -25
40 -40 40 -70 -1 -108 -18 -16 -42 -42 -53 -57 -21 -29 -98 -56 -160 -57 -16
0 -36 -4 -43 -8 -16 -11 -86 -180 -107 -262 -28 -108 -62 -152 -128 -165 -18
-4 -52 -13 -77 -22 -84 -27 -160 8 -160 75 0 50 39 194 89 326 36 96 47 136
38 136 -1 0 -38 -15 -82 -33 -77 -32 -81 -35 -107 -89 -15 -31 -48 -118 -74
-194 -52 -156 -73 -185 -146 -210 -67 -22 -132 -12 -170 27 -34 34 -36 14 24
259 66 272 270 854 316 903 42 44 119 79 187 84 75 6 115 -18 115 -71 0 -18
-32 -113 -71 -212 -86 -216 -85 -214 -68 -214 15 0 172 22 176 25 2 1 12 39
23 86 46 186 90 309 124 342 19 19 43 62 58 103 l27 72 -49 6 c-63 8 -90 40
-90 103 0 91 117 173 327 230 106 28 247 43 303 31 20 -4 47 -20 63 -38z"/>
<path d="M2993 2173 c-10 -3 -13 -68 -13 -274 l0 -269 40 0 40 0 0 120 0 120
115 0 115 0 0 -120 0 -120 40 0 40 0 0 269 c0 261 -1 270 -20 276 -11 3 -29 3
-40 0 -18 -6 -20 -15 -20 -116 l0 -109 -115 0 -115 0 0 109 c0 90 -3 110 -16
115 -18 7 -33 7 -51 -1z"/>
<path d="M3655 2174 c-17 -4 -36 -50 -108 -267 -48 -144 -87 -266 -87 -270 0
-4 18 -7 39 -7 l39 0 22 65 22 66 101 -3 100 -3 20 -58 c13 -41 26 -61 42 -67
23 -9 65 -3 65 9 0 6 -171 524 -175 528 -4 6 -62 11 -80 7z m105 -341 c0 -2
-35 -3 -79 -3 l-79 0 35 113 c19 61 37 119 40 127 3 11 79 -206 83 -237z"/>
<path d="M4068 2173 l-68 -4 0 -269 0 -270 40 0 40 0 0 94 0 93 79 5 c59 3 87
10 116 28 70 43 95 152 55 235 -35 72 -107 97 -262 88z m141 -78 c58 -30 68
-138 16 -182 -21 -18 -38 -23 -86 -23 l-59 0 0 103 c0 57 3 107 7 110 12 12
94 7 122 -8z"/>
<path d="M4518 2173 l-68 -4 0 -269 0 -270 40 0 40 0 0 94 0 93 79 5 c59 3 87
10 116 28 70 43 95 152 55 235 -35 72 -107 97 -262 88z m141 -78 c58 -30 68
-138 16 -182 -21 -18 -38 -23 -86 -23 l-59 0 0 103 c0 57 3 107 7 110 12 12
94 7 122 -8z"/>
<path d="M4858 2173 c-10 -2 -18 -9 -18 -14 0 -6 32 -85 70 -176 70 -166 70
-166 70 -259 l0 -94 45 0 45 0 0 86 c0 85 1 89 75 265 41 99 75 181 75 183 0
10 -53 15 -68 7 -11 -6 -38 -64 -67 -140 -46 -119 -65 -154 -65 -117 0 26 -91
241 -108 254 -16 12 -24 13 -54 5z"/>
<path d="M5878 2173 c-17 -4 -18 -26 -18 -274 l0 -269 45 0 45 0 0 120 0 120
110 0 110 0 0 -120 0 -120 45 0 45 0 0 269 0 269 -22 5 c-12 4 -33 4 -45 1
-22 -6 -23 -10 -23 -115 l0 -109 -110 0 -110 0 0 109 c0 104 -1 109 -22 115
-13 3 -25 5 -28 5 -3 -1 -13 -3 -22 -6z"/>
<path d="M6468 2173 l-68 -4 0 -269 0 -270 40 0 40 0 0 110 0 110 44 0 c63 0
87 -24 126 -125 32 -87 54 -110 90 -97 34 12 40 23 26 45 -8 12 -28 57 -46
100 -18 42 -38 81 -46 85 -11 6 -8 13 16 30 48 36 64 77 61 159 -1 35 -39 86
-80 107 -32 16 -113 24 -203 19z m171 -87 c37 -33 33 -122 -6 -152 -11 -8 -45
-13 -85 -14 l-68 0 0 96 0 97 70 -5 c46 -4 77 -11 89 -22z"/>
<path d="M5412 2138 l3 -33 73 -3 72 -3 0 -234 0 -235 40 0 40 0 0 235 0 235
65 0 c68 0 88 13 78 51 -5 18 -18 19 -190 19 l-184 0 3 -32z"/>
<path d="M6870 1922 c0 -208 2 -251 16 -270 14 -21 22 -22 158 -22 150 0 166
4 166 47 0 23 -1 23 -125 23 l-125 0 0 85 0 85 100 0 100 0 0 35 0 35 -100 0
-100 0 0 80 0 80 120 0 120 0 0 35 0 35 -165 0 -165 0 0 -248z"/>
<path d="M7320 1922 c0 -208 2 -251 16 -270 14 -21 22 -22 158 -22 150 0 166
4 166 47 0 23 -1 23 -125 23 l-125 0 0 85 0 85 100 0 100 0 0 35 0 35 -100 0
-100 0 0 80 0 80 120 0 120 0 0 35 0 35 -165 0 -165 0 0 -248z"/>
<path d="M3463 1383 l-73 -4 0 -269 0 -270 45 0 45 0 0 111 0 112 51 -5 c27
-3 55 -10 61 -16 5 -5 24 -45 42 -88 46 -113 49 -117 86 -116 44 1 55 14 37
43 -8 13 -27 57 -42 97 -15 40 -35 78 -45 84 -15 10 -13 15 25 52 58 55 68
113 34 183 -38 75 -99 94 -266 86z m174 -98 c35 -40 28 -109 -16 -142 -9 -7
-44 -13 -78 -13 l-63 0 0 96 0 97 67 -6 c57 -4 71 -9 90 -32z"/>
<path d="M3888 1383 c-17 -4 -18 -26 -18 -274 l0 -269 45 0 45 0 0 269 0 269
-22 6 c-13 3 -25 5 -28 5 -3 -1 -13 -3 -22 -6z"/>
<path d="M4578 1382 l-28 -3 0 -270 0 -269 41 0 40 0 -3 220 -3 220 110 -220
110 -220 53 0 52 0 -2 273 -3 272 -29 -2 c-16 -1 -33 -8 -38 -15 -4 -7 -7
-106 -6 -221 2 -114 3 -207 2 -207 -1 0 -50 99 -109 219 -116 236 -112 231
-187 223z"/>
<path d="M5133 1383 l-43 -4 0 -270 0 -269 123 0 c97 0 130 4 163 19 75 34
114 119 114 245 -1 140 -38 223 -115 257 -46 20 -162 31 -242 22z m219 -99
c36 -36 48 -79 48 -179 0 -91 -22 -153 -64 -180 -16 -11 -49 -17 -93 -18 l-68
-2 -3 195 c-1 107 0 201 3 209 4 11 20 13 77 8 59 -5 76 -11 100 -33z"/>
<path d="M2980 1110 l0 -270 40 0 39 0 3 118 3 117 98 3 97 3 0 34 0 35 -100
0 -100 0 0 80 0 80 104 0 c57 0 111 3 120 6 10 4 16 18 16 35 l0 29 -160 0
-160 0 0 -270z"/>
<path d="M4100 1126 c0 -218 2 -257 16 -270 12 -13 41 -16 154 -16 147 0 170
7 170 51 0 18 -8 19 -131 19 -131 0 -131 0 -125 23 3 12 6 50 6 84 l0 62 98 3
97 3 0 30 0 30 -97 3 -98 3 0 48 c0 27 -3 63 -6 80 l-6 31 120 0 c127 0 132 2
132 51 0 18 -9 19 -165 19 l-165 0 0 -254z"/>
</g>
</svg>
